<svg id="svg" version="1.1" xmlns="http://www.w3.org/2000/svg" xmlns:xlink="http://www.w3.org/1999/xlink" width="400" height="400" viewBox="0, 0, 400,400"><g id="svgg"><path id="path0" d="M111.797 184.200 C 112.187 184.982,112.396 186.591,112.398 188.824 C 112.399 191.318,112.569 192.458,113.022 193.024 C 113.623 193.774,113.630 193.770,113.222 192.926 C 112.990 192.446,112.800 190.441,112.800 188.471 C 112.800 185.469,112.670 184.736,111.999 183.944 L 111.199 183.000 111.797 184.200 M115.031 203.200 C 115.864 204.938,116.000 205.094,116.000 204.311 C 116.000 203.969,115.631 203.264,115.180 202.744 L 114.360 201.800 115.031 203.200 M264.500 245.460 C 264.225 245.574,264.000 245.900,264.000 246.184 C 264.000 247.182,262.657 247.802,260.064 248.000 C 257.501 248.196,257.440 248.227,257.109 249.513 C 256.846 250.534,256.507 250.879,255.585 251.063 C 254.146 251.351,254.061 251.891,255.376 252.391 C 258.669 253.643,257.058 257.200,253.197 257.200 C 251.313 257.200,251.128 257.287,250.759 258.345 C 249.838 260.988,244.302 261.179,243.131 258.608 C 242.525 257.278,242.122 257.335,241.801 258.795 C 241.425 260.505,241.196 260.573,235.004 260.797 C 229.807 260.986,229.398 261.057,229.261 261.800 C 228.965 263.407,228.442 263.600,224.384 263.600 C 218.767 263.600,219.200 263.048,219.200 270.210 C 219.200 277.228,219.184 277.297,217.360 278.425 L 216.000 279.265 215.994 298.333 C 215.991 308.820,215.856 317.589,215.694 317.819 C 215.532 318.050,214.815 318.647,214.100 319.147 C 212.958 319.944,212.800 320.275,212.800 321.870 C 212.800 323.655,212.726 323.757,208.200 328.208 C 203.782 332.554,203.600 332.799,203.600 334.412 C 203.600 335.862,203.381 336.293,202.000 337.555 C 200.561 338.871,200.400 339.209,200.400 340.929 L 200.400 342.840 202.696 342.720 C 204.765 342.612,205.046 342.489,205.529 341.478 C 206.720 338.983,212.406 338.892,213.025 341.357 C 213.391 342.816,212.915 343.855,211.639 344.384 C 211.015 344.642,209.906 345.472,209.174 346.227 C 206.540 348.944,199.200 348.092,199.200 345.069 C 199.200 343.683,197.606 343.591,196.307 344.900 C 195.816 345.395,195.051 345.983,194.607 346.206 C 194.163 346.429,193.491 347.239,193.113 348.006 C 192.734 348.773,191.943 349.926,191.355 350.569 L 190.284 351.738 190.542 356.528 C 190.819 361.678,191.097 362.400,192.799 362.400 C 193.726 362.400,193.900 362.569,193.900 363.469 C 193.900 364.585,194.897 365.600,195.994 365.600 C 196.372 365.600,196.792 366.134,197.017 366.900 C 197.305 367.877,197.723 368.295,198.700 368.583 C 199.541 368.830,200.000 369.219,200.000 369.683 C 200.000 371.813,200.884 372.000,210.965 372.000 L 220.330 372.000 222.665 369.661 C 223.949 368.375,225.327 366.918,225.728 366.424 C 226.844 365.047,228.000 366.254,228.000 368.795 C 228.000 370.497,227.855 370.782,226.400 371.952 L 224.800 373.238 224.800 376.375 C 224.800 378.823,224.961 379.711,225.535 380.419 C 226.573 381.701,227.200 381.090,227.200 378.795 C 227.200 376.345,227.723 375.174,229.192 374.330 C 231.897 372.778,231.867 365.240,229.143 362.093 C 227.659 360.378,227.371 359.214,227.540 355.600 C 227.785 350.342,227.756 347.469,227.431 344.800 L 227.113 342.200 228.318 341.500 C 229.803 340.638,232.984 340.588,234.546 341.402 C 236.198 342.264,251.943 342.296,251.230 341.436 C 250.909 341.050,250.894 340.789,251.181 340.612 C 251.411 340.469,251.600 340.003,251.600 339.576 C 251.600 338.923,251.885 338.800,253.400 338.800 C 254.580 338.800,255.196 338.628,255.187 338.300 C 255.180 338.025,255.210 332.580,255.254 326.200 C 255.297 319.820,255.303 312.323,255.266 309.540 L 255.200 304.479 253.800 303.653 L 252.400 302.827 252.400 299.081 L 252.400 295.334 250.900 294.364 L 249.400 293.393 249.294 281.445 C 249.182 268.778,249.194 268.687,251.091 267.966 C 251.599 267.772,252.172 267.199,252.366 266.691 C 252.911 265.255,253.648 264.858,256.012 264.724 L 258.200 264.600 258.408 262.258 C 258.774 258.146,261.662 257.059,263.327 260.407 C 263.793 261.342,264.036 261.407,267.493 261.515 C 273.703 261.709,275.275 265.864,269.338 266.392 C 266.481 266.646,265.953 267.730,268.600 267.907 C 271.303 268.087,271.962 268.367,272.603 269.606 C 273.164 270.690,273.405 270.800,275.223 270.800 L 277.225 270.800 281.579 266.368 C 286.245 261.617,286.204 261.635,288.361 263.353 C 289.408 264.186,291.506 264.000,291.761 263.051 C 292.132 261.669,292.020 256.251,291.607 255.600 C 291.244 255.027,291.039 254.952,289.552 254.846 C 289.077 254.812,288.942 254.484,289.044 253.609 C 289.191 252.346,288.256 251.486,286.884 251.624 C 284.695 251.843,282.800 251.562,282.800 251.019 C 282.800 249.582,281.871 248.390,280.834 248.495 C 279.905 248.589,279.780 248.438,279.600 247.000 L 279.400 245.400 272.200 245.327 C 268.240 245.287,264.775 245.347,264.500 245.460 M138.800 248.754 C 138.800 248.949,138.149 249.418,137.354 249.795 C 136.558 250.173,134.413 251.986,132.587 253.824 L 129.267 257.168 129.186 259.684 C 129.044 264.169,128.857 263.864,131.900 264.117 C 136.125 264.469,137.571 265.033,138.218 266.581 C 138.575 267.437,139.140 267.999,139.811 268.167 C 140.483 268.336,140.998 268.848,141.265 269.614 C 141.624 270.645,141.875 270.800,143.179 270.800 C 145.515 270.800,147.091 271.511,147.527 272.762 C 147.754 273.413,148.412 274.074,149.130 274.371 C 149.872 274.678,150.506 275.330,150.753 276.038 C 151.286 277.566,151.861 277.507,152.552 275.854 C 152.909 274.999,153.480 274.417,154.117 274.257 C 154.756 274.096,155.273 273.567,155.540 272.800 C 156.086 271.234,157.311 270.800,161.187 270.800 L 164.321 270.800 165.135 269.421 C 165.894 268.134,166.103 268.033,168.244 267.921 C 170.326 267.811,170.600 267.689,171.198 266.600 C 171.560 265.940,172.339 265.165,172.928 264.878 C 173.852 264.429,174.000 264.110,174.000 262.578 L 174.000 260.800 170.426 260.800 C 166.006 260.800,164.863 260.413,164.541 258.807 C 164.313 257.665,164.196 257.600,162.376 257.600 C 159.626 257.600,158.525 257.078,158.205 255.624 C 157.942 254.427,157.885 254.400,155.568 254.400 C 153.108 254.400,151.600 253.564,151.600 252.200 C 151.600 251.700,150.800 251.600,146.800 251.600 L 142.000 251.600 142.000 249.951 C 142.000 248.577,141.906 248.380,141.436 248.770 C 141.050 249.091,140.789 249.106,140.612 248.819 C 140.298 248.311,138.800 248.257,138.800 248.754 M135.883 260.095 C 135.787 260.593,135.705 260.280,135.701 259.400 C 135.696 258.520,135.775 258.113,135.875 258.495 C 135.975 258.878,135.979 259.598,135.883 260.095 M120.583 264.428 C 120.456 264.633,120.588 264.803,120.876 264.806 C 121.302 264.811,121.301 264.875,120.869 265.149 C 119.973 265.717,120.377 273.018,121.300 272.944 C 121.685 272.914,122.000 273.008,122.000 273.155 C 122.000 273.301,123.018 273.416,124.262 273.410 C 126.350 273.401,126.530 273.472,126.598 274.337 C 126.639 274.852,126.901 275.415,127.181 275.588 C 127.587 275.839,127.580 275.947,127.145 276.120 C 126.845 276.239,127.992 276.351,129.692 276.368 C 132.866 276.401,133.678 276.999,133.285 279.015 C 133.237 279.263,134.359 279.469,136.083 279.529 C 139.449 279.645,139.162 279.487,139.295 281.287 L 139.400 282.718 143.800 282.513 C 148.684 282.285,148.677 282.288,148.866 280.600 C 148.986 279.522,148.878 279.389,147.800 279.294 C 144.557 279.009,143.949 278.759,143.133 277.377 C 142.432 276.188,142.111 276.000,140.787 276.000 C 138.636 276.000,137.249 275.382,136.810 274.226 C 136.603 273.683,135.899 272.962,135.246 272.624 C 134.592 272.285,133.940 271.642,133.798 271.194 C 133.656 270.745,133.058 270.081,132.470 269.717 C 130.806 268.689,130.400 267.984,130.400 266.124 L 130.400 264.400 126.700 264.372 C 124.665 264.357,122.508 264.280,121.906 264.200 C 121.305 264.121,120.709 264.223,120.583 264.428 M243.444 268.306 C 243.688 268.468,244.188 269.185,244.554 269.900 C 244.921 270.615,245.473 271.200,245.782 271.200 C 247.395 271.200,247.600 272.171,247.600 279.806 C 247.600 288.952,248.050 288.400,240.587 288.400 C 235.024 288.400,234.705 288.306,233.463 286.300 C 232.804 285.237,232.664 285.200,229.291 285.194 C 225.384 285.187,225.172 285.109,224.270 283.347 C 223.915 282.654,223.192 281.984,222.654 281.849 C 220.364 281.275,219.913 269.721,222.125 268.314 C 222.737 267.925,242.857 267.917,243.444 268.306 M257.492 269.880 C 257.392 270.056,257.193 270.690,257.050 271.290 C 256.859 272.089,256.444 272.469,255.495 272.715 L 254.200 273.051 254.200 281.214 C 254.200 289.366,254.201 289.377,255.134 289.842 C 256.801 290.673,256.997 291.172,257.200 295.118 L 257.400 299.000 259.106 299.123 L 260.811 299.247 260.706 286.723 L 260.600 274.200 259.200 273.723 L 257.800 273.245 259.723 273.223 L 261.646 273.200 261.523 271.500 L 261.400 269.800 259.536 269.680 C 258.511 269.613,257.591 269.703,257.492 269.880 M226.275 273.059 C 225.419 273.915,226.018 276.789,227.178 277.388 C 227.825 277.723,228.592 278.493,228.882 279.099 C 229.384 280.150,229.553 280.205,232.604 280.301 C 237.084 280.442,237.559 280.605,238.241 282.236 C 238.808 283.594,238.894 283.638,240.714 283.521 L 242.600 283.400 242.600 278.200 L 242.600 273.000 234.575 272.892 C 230.161 272.833,226.426 272.908,226.275 273.059 M265.200 273.151 C 263.004 273.777,263.985 275.952,266.614 276.284 C 267.802 276.434,267.827 276.402,267.814 274.719 C 267.799 272.855,267.296 272.553,265.200 273.151 M261.092 314.466 C 260.725 314.693,260.570 317.805,260.483 326.747 L 260.367 338.724 262.614 338.862 C 263.849 338.938,265.142 338.842,265.485 338.649 C 265.914 338.409,266.022 338.440,265.831 338.749 C 265.678 338.997,265.743 339.200,265.976 339.200 C 266.209 339.200,266.400 339.009,266.400 338.776 C 266.400 338.543,266.580 338.464,266.800 338.600 C 267.314 338.918,267.333 335.601,266.824 334.263 C 266.581 333.624,266.015 333.179,265.224 333.005 L 264.000 332.736 263.939 324.068 C 263.906 319.301,263.860 315.130,263.839 314.800 C 263.796 314.156,261.957 313.932,261.092 314.466 M222.075 321.993 C 223.045 323.191,222.989 323.847,221.818 325.018 C 219.340 327.496,213.354 325.204,215.080 322.438 C 216.243 320.574,220.696 320.291,222.075 321.993 M234.400 328.000 C 235.761 329.361,235.250 331.105,233.193 332.126 C 232.345 332.547,232.171 332.965,232.000 334.997 C 231.680 338.799,229.324 339.612,227.514 336.544 C 226.724 335.206,226.605 335.138,226.222 335.811 C 224.756 338.389,221.144 339.357,218.889 337.777 C 217.274 336.646,217.934 334.239,220.066 333.486 C 220.432 333.357,220.974 332.746,221.270 332.129 C 221.565 331.512,222.301 330.771,222.904 330.482 C 223.507 330.193,224.000 329.778,224.000 329.560 C 224.000 327.283,232.420 326.020,234.400 328.000 M250.000 328.000 C 251.461 329.461,250.950 331.056,248.657 332.194 C 247.956 332.542,247.778 333.036,247.680 334.901 C 247.535 337.678,246.751 338.400,243.885 338.400 C 239.782 338.400,238.079 334.887,241.588 333.664 C 242.213 333.446,242.879 332.776,243.171 332.070 C 243.478 331.328,244.130 330.694,244.838 330.447 C 245.477 330.224,246.000 329.769,246.000 329.436 C 246.000 327.638,248.677 326.677,250.000 328.000 M155.800 337.859 C 152.044 338.642,151.594 338.867,152.430 339.548 C 152.870 339.907,153.474 340.914,153.773 341.786 C 154.483 343.861,154.903 343.936,156.211 342.221 L 157.295 340.800 162.316 340.800 C 169.256 340.800,169.683 341.181,166.416 344.448 C 164.302 346.562,163.896 346.800,162.403 346.800 C 160.971 346.800,160.543 347.021,159.305 348.400 C 156.715 351.285,153.200 350.431,153.200 346.917 C 153.200 345.184,152.421 344.153,151.405 344.543 C 150.982 344.705,150.799 345.351,150.798 346.687 C 150.797 347.739,150.604 349.291,150.369 350.137 C 149.624 352.820,150.355 353.200,156.266 353.200 C 160.840 353.200,161.260 353.136,161.904 352.340 C 163.603 350.241,164.000 350.000,165.766 350.000 C 167.349 350.000,167.664 349.834,168.800 348.400 C 169.960 346.935,170.228 346.800,171.972 346.800 C 177.197 346.800,175.243 339.246,169.682 337.947 C 168.485 337.668,157.067 337.595,155.800 337.859 M180.960 342.500 C 178.046 345.082,178.000 345.149,178.000 346.831 C 178.000 349.379,164.963 362.400,162.412 362.400 C 160.895 362.400,158.800 363.776,158.800 364.772 C 158.800 364.913,158.271 365.340,157.624 365.722 C 156.978 366.104,156.340 366.760,156.207 367.179 C 156.073 367.599,155.343 368.309,154.582 368.757 C 153.252 369.542,153.200 369.663,153.200 371.954 C 153.200 374.307,153.183 374.342,151.700 375.067 L 150.200 375.800 150.084 379.321 L 149.968 382.842 152.350 385.246 C 154.616 387.533,154.815 387.643,156.466 387.525 C 158.714 387.363,159.145 386.006,157.258 385.030 C 156.528 384.653,155.894 383.892,155.622 383.066 C 155.377 382.324,154.732 381.300,154.188 380.789 C 152.881 379.560,152.686 375.200,153.939 375.200 C 154.417 375.200,154.938 374.624,155.413 373.570 C 155.928 372.430,156.631 371.694,157.756 371.120 C 158.640 370.669,160.427 369.237,161.726 367.938 C 164.385 365.279,164.515 365.288,166.258 368.264 C 166.854 369.280,167.297 370.693,167.335 371.695 C 167.399 373.363,167.433 373.403,168.900 373.524 C 170.319 373.642,170.400 373.723,170.400 375.024 C 170.400 376.363,170.443 376.400,172.000 376.400 L 173.600 376.400 173.600 378.000 C 173.600 379.554,173.639 379.600,174.965 379.600 C 176.245 379.600,176.346 379.699,176.600 381.200 C 176.854 382.701,176.955 382.800,178.235 382.800 L 179.600 382.800 179.600 385.586 C 179.600 388.592,180.019 389.200,182.093 389.200 C 183.645 389.200,186.000 391.922,186.000 393.717 C 186.000 395.181,186.021 395.200,187.600 395.200 L 189.200 395.200 189.200 396.800 L 189.200 398.400 192.200 398.400 C 194.933 398.400,195.200 398.471,195.200 399.200 C 195.200 399.990,195.467 400.000,217.200 400.000 C 238.933 400.000,239.200 399.990,239.200 399.200 C 239.200 398.478,238.933 398.400,236.480 398.400 C 233.474 398.400,232.800 398.020,232.800 396.327 L 232.800 395.213 222.100 395.107 L 211.400 395.000 211.200 393.600 C 211.022 392.356,210.844 392.178,209.600 392.000 C 208.356 391.822,208.178 391.644,208.000 390.400 C 207.822 389.156,207.644 388.978,206.400 388.800 C 205.163 388.623,204.985 388.449,204.875 387.300 C 204.779 386.308,204.560 386.000,203.948 386.000 C 202.487 386.000,201.600 385.239,201.600 383.986 C 201.600 382.938,201.462 382.800,200.414 382.800 C 199.161 382.800,198.400 381.913,198.400 380.452 C 198.400 379.842,198.092 379.621,197.113 379.525 C 195.994 379.416,195.780 379.206,195.478 377.923 C 195.178 376.646,194.960 376.429,193.866 376.323 C 192.722 376.212,192.588 376.058,192.477 374.723 C 192.362 373.335,192.265 373.238,190.877 373.123 C 189.545 373.012,189.388 372.877,189.278 371.744 L 189.156 370.488 186.354 370.329 C 183.405 370.163,182.818 369.794,182.806 368.100 C 182.800 367.269,182.619 367.200,180.433 367.200 C 177.238 367.200,176.800 366.981,176.800 365.385 C 176.800 364.320,176.625 364.030,175.918 363.928 C 174.722 363.755,174.427 361.300,175.482 360.292 C 184.339 351.825,184.400 351.754,184.400 349.897 C 184.400 348.326,184.571 347.996,185.975 346.868 C 187.611 345.554,187.838 344.062,186.730 341.900 C 186.065 340.600,182.710 340.949,180.960 342.500 M224.710 351.552 C 224.848 359.726,225.250 359.200,218.860 359.200 L 213.818 359.200 212.355 357.600 L 210.892 356.000 205.879 356.000 L 200.865 356.000 200.000 354.600 C 199.207 353.317,198.975 353.200,197.229 353.200 C 195.813 353.200,195.132 352.988,194.578 352.376 C 193.366 351.036,194.388 350.813,201.800 350.800 C 209.210 350.787,209.185 350.792,210.154 348.900 L 210.821 347.600 216.224 347.600 L 221.627 347.600 222.465 346.180 C 224.172 343.287,224.588 344.282,224.710 351.552 M196.304 357.260 C 198.249 359.663,198.058 359.600,203.353 359.600 L 208.305 359.600 209.373 361.000 L 210.441 362.400 215.289 362.400 C 221.381 362.400,223.468 363.651,220.400 365.464 C 219.740 365.854,219.200 366.287,219.200 366.428 C 219.200 366.568,218.759 367.159,218.219 367.742 L 217.238 368.800 208.619 368.800 C 200.040 368.800,200.000 368.796,200.000 367.931 C 200.000 366.754,198.881 365.600,197.738 365.600 C 197.042 365.600,196.800 365.376,196.800 364.731 C 196.800 363.637,195.706 362.400,194.738 362.400 C 193.925 362.400,193.898 362.288,193.999 359.400 C 194.102 356.470,194.994 355.641,196.304 357.260 M123.964 358.200 C 123.943 358.200,123.845 358.769,123.745 359.465 C 123.501 361.168,124.088 361.411,125.524 360.203 C 126.314 359.538,127.202 359.200,128.158 359.200 C 129.173 359.200,129.600 359.022,129.600 358.600 C 129.600 358.179,129.175 358.000,128.171 358.000 C 127.386 358.000,126.473 358.270,126.143 358.600 C 125.813 358.930,125.341 359.200,125.095 359.200 C 124.849 359.200,124.994 358.946,125.418 358.636 C 126.147 358.103,126.130 358.076,125.095 358.136 C 124.493 358.171,123.984 358.200,123.964 358.200 M125.705 360.554 C 125.569 360.773,125.670 361.023,125.929 361.110 C 126.207 361.202,126.422 362.195,126.454 363.533 C 126.484 364.780,126.587 365.395,126.682 364.900 C 126.822 364.175,127.123 364.000,128.228 364.000 C 129.481 364.000,129.600 363.897,129.600 362.820 C 129.600 362.116,129.880 361.483,130.294 361.251 C 130.908 360.908,130.873 360.838,129.994 360.651 C 127.942 360.214,125.943 360.168,125.705 360.554 M117.379 364.509 C 117.272 364.790,117.233 368.975,117.292 373.809 L 117.400 382.600 118.900 382.724 L 120.400 382.848 120.400 387.424 L 120.400 392.000 122.000 392.000 L 123.600 392.000 123.600 393.600 L 123.600 395.200 126.600 395.200 L 129.600 395.200 129.600 397.600 L 129.600 400.000 137.400 400.000 C 144.848 400.000,145.200 399.965,145.200 399.225 C 145.200 398.644,144.876 398.419,143.900 398.325 C 142.717 398.211,142.589 398.067,142.477 396.723 C 142.362 395.335,142.265 395.238,140.877 395.123 C 139.489 395.007,139.393 394.911,139.277 393.523 C 139.162 392.135,139.065 392.038,137.677 391.923 L 136.200 391.800 136.087 387.300 L 135.974 382.800 133.177 382.800 C 129.923 382.800,129.600 382.421,129.600 378.599 C 129.600 376.468,129.590 376.450,128.300 376.325 C 127.172 376.217,126.984 376.036,126.879 374.961 C 126.800 374.145,126.219 373.195,125.179 372.180 C 123.538 370.577,122.933 367.936,124.100 367.465 C 124.433 367.331,124.393 367.253,123.981 367.232 C 123.641 367.214,122.659 366.480,121.800 365.600 C 120.182 363.944,117.820 363.361,117.379 364.509 M45.373 370.927 C 45.254 371.236,45.212 372.549,45.278 373.845 L 45.400 376.200 48.518 376.317 L 51.636 376.434 51.518 373.517 L 51.400 370.600 48.494 370.482 C 46.285 370.393,45.537 370.500,45.373 370.927 M169.600 372.600 C 169.600 372.969,169.254 373.182,168.700 373.154 C 168.023 373.119,167.973 373.062,168.500 372.924 C 168.885 372.824,169.200 372.575,169.200 372.371 C 169.200 372.167,169.290 372.000,169.400 372.000 C 169.510 372.000,169.600 372.270,169.600 372.600 M230.470 381.812 C 227.077 382.633,227.533 384.400,231.138 384.400 C 232.874 384.400,233.078 384.531,235.859 387.422 L 238.765 390.443 240.841 390.322 C 243.896 390.143,244.258 389.285,242.116 387.307 C 241.201 386.462,240.347 385.247,240.206 384.589 C 239.746 382.434,239.455 382.213,236.758 381.968 C 235.351 381.840,233.840 381.637,233.400 381.517 C 232.960 381.396,231.641 381.529,230.470 381.812 M162.853 388.759 C 162.288 389.117,162.481 389.386,164.640 391.260 C 165.058 391.622,165.798 392.342,166.284 392.860 C 166.771 393.377,167.536 394.115,167.984 394.500 C 168.637 395.060,168.800 395.680,168.800 397.600 L 168.800 400.000 171.000 400.000 C 173.080 400.000,173.200 399.945,173.200 399.000 C 173.200 397.284,182.185 397.620,182.524 399.349 C 182.687 400.181,182.692 400.180,182.746 399.310 C 182.834 397.863,180.992 397.200,176.882 397.200 C 172.747 397.200,172.241 396.877,171.443 393.732 C 171.077 392.291,170.679 391.667,169.875 391.278 C 169.282 390.990,168.523 390.225,168.188 389.578 C 167.553 388.349,164.290 387.849,162.853 388.759 M252.873 389.400 C 252.028 390.111,251.210 390.400,250.042 390.400 C 245.101 390.400,246.325 393.386,251.444 393.819 L 254.687 394.093 256.011 392.447 L 257.334 390.800 264.467 390.800 C 270.401 390.800,271.600 390.897,271.600 391.375 C 271.600 391.691,272.645 393.030,273.921 394.351 L 276.242 396.753 280.421 396.800 C 282.720 396.827,284.915 396.837,285.300 396.824 C 285.846 396.805,286.000 396.448,286.000 395.200 L 286.000 393.600 282.634 393.600 L 279.267 393.600 278.000 392.000 C 276.777 390.456,276.649 390.400,274.366 390.400 C 272.311 390.400,272.000 390.300,272.000 389.643 C 272.000 388.484,271.352 388.400,262.398 388.400 C 254.089 388.400,254.057 388.403,252.873 389.400 M150.631 394.477 C 149.686 395.827,150.763 396.800,153.200 396.800 C 155.755 396.800,156.893 395.693,155.633 394.433 C 154.439 393.239,151.480 393.266,150.631 394.477 " stroke="none" fill="#259263" fill-rule="evenodd"></path><path id="path1" d="M114.770 206.027 C 114.457 206.225,113.418 206.391,112.462 206.394 C 110.825 206.400,110.556 206.574,107.838 209.400 C 105.148 212.197,104.839 212.400,103.276 212.400 C 101.003 212.400,100.976 213.628,103.200 215.800 C 105.398 217.946,105.326 218.722,102.917 218.878 C 100.904 219.008,98.166 221.763,99.334 222.482 C 99.609 222.651,99.882 224.293,100.000 226.478 C 100.195 230.102,100.229 230.206,101.445 230.994 C 102.130 231.437,102.977 232.295,103.327 232.900 C 103.677 233.505,104.378 234.190,104.886 234.421 C 105.394 234.652,106.114 235.372,106.486 236.021 C 106.858 236.670,107.621 237.409,108.181 237.664 C 109.128 238.096,109.200 238.321,109.200 240.864 L 109.200 243.600 107.987 243.600 C 107.197 243.600,106.686 243.356,106.519 242.900 C 106.302 242.310,99.396 235.310,97.425 233.684 C 96.494 232.916,96.509 223.540,97.442 222.765 C 98.371 221.994,95.884 221.153,94.294 221.701 C 92.304 222.387,92.000 223.308,92.000 228.639 C 92.000 235.389,92.153 236.000,93.850 236.000 L 95.200 236.000 95.200 239.000 L 95.200 242.000 96.800 242.000 L 98.400 242.000 98.400 243.600 L 98.400 245.200 101.600 245.200 L 104.800 245.200 104.800 246.800 L 104.800 248.400 106.400 248.400 L 108.000 248.400 108.000 250.000 C 108.000 251.557,108.037 251.600,109.376 251.600 C 110.677 251.600,110.758 251.681,110.876 253.100 C 110.993 254.519,111.081 254.607,112.500 254.724 C 113.910 254.841,114.000 254.928,114.000 256.189 C 114.000 257.441,114.105 257.547,115.600 257.800 C 117.101 258.054,117.200 258.155,117.200 259.435 C 117.200 260.761,117.246 260.800,118.800 260.800 L 120.400 260.800 120.400 262.400 L 120.400 264.000 122.400 264.000 L 124.400 264.000 124.400 262.374 C 124.400 260.483,123.824 259.200,122.976 259.200 C 122.648 259.200,122.207 258.746,121.996 258.190 C 121.785 257.635,120.980 256.807,120.206 256.351 C 119.112 255.705,118.800 255.264,118.800 254.360 C 118.800 252.310,123.384 252.600,125.121 254.762 L 126.376 256.323 128.288 255.838 C 129.723 255.474,130.333 255.078,130.733 254.253 C 131.026 253.648,131.700 252.955,132.231 252.713 C 132.761 252.471,133.547 251.678,133.977 250.950 C 134.457 250.135,135.189 249.531,135.879 249.378 C 138.884 248.713,139.000 248.624,139.000 246.967 C 139.000 245.445,138.957 245.396,137.500 245.276 L 136.000 245.152 136.000 242.176 L 136.000 239.200 134.400 239.200 C 132.835 239.200,132.800 239.169,132.800 237.784 C 132.800 236.645,132.477 236.061,131.151 234.800 C 129.941 233.649,129.578 233.041,129.785 232.516 C 130.633 230.369,130.524 229.239,129.420 228.736 C 128.826 228.466,128.080 227.742,127.763 227.129 C 127.446 226.515,126.652 225.737,125.999 225.399 C 124.768 224.763,124.487 224.101,124.307 221.409 C 124.224 220.172,123.979 219.709,123.207 219.326 C 121.699 218.578,121.200 217.636,121.200 215.534 C 121.200 213.817,121.078 213.558,120.012 213.006 C 118.516 212.233,118.000 211.275,118.000 209.274 C 118.000 207.454,115.881 205.324,114.770 206.027 M114.711 244.223 C 115.473 244.757,115.600 245.213,115.600 247.423 C 115.600 249.801,115.667 250.000,116.469 250.000 C 117.646 250.000,118.800 251.119,118.800 252.262 C 118.800 252.989,118.581 253.200,117.829 253.200 C 116.586 253.200,115.600 252.214,115.600 250.971 C 115.600 250.166,115.402 250.000,114.440 250.000 C 113.536 250.000,113.095 249.688,112.449 248.594 C 111.993 247.820,111.190 247.024,110.664 246.824 C 109.666 246.445,109.200 245.663,109.200 244.367 C 109.200 243.358,113.322 243.250,114.711 244.223 M181.900 263.630 C 180.445 264.482,180.957 267.197,182.894 268.902 L 184.600 270.404 183.656 271.202 C 183.029 271.732,182.128 272.000,180.976 272.000 C 179.463 272.000,179.104 272.179,178.173 273.400 C 176.871 275.107,176.668 275.118,174.917 273.581 C 173.142 272.023,172.400 272.492,172.400 275.173 C 172.400 277.189,172.018 277.873,170.300 278.937 C 169.695 279.312,169.200 279.890,169.200 280.223 C 169.200 280.555,168.598 281.182,167.863 281.616 C 167.128 282.050,166.329 282.839,166.087 283.369 C 165.845 283.900,165.142 284.576,164.524 284.871 L 163.400 285.409 163.200 292.204 C 162.985 299.520,162.942 299.699,161.175 300.613 C 160.010 301.215,160.000 301.252,160.000 304.734 C 160.000 308.456,159.805 308.957,157.900 310.137 L 156.800 310.818 156.800 315.947 C 156.800 321.137,156.438 322.400,154.949 322.400 C 154.129 322.400,153.629 323.307,154.033 324.061 C 154.366 324.683,154.924 324.800,157.570 324.800 C 164.350 324.800,164.340 327.636,157.558 328.060 C 151.222 328.456,151.049 328.545,150.759 331.544 C 150.569 333.512,150.291 334.270,149.430 335.168 C 146.731 337.986,149.306 340.461,152.606 338.222 C 153.434 337.660,154.352 337.200,154.646 337.200 C 154.940 337.200,155.754 336.570,156.455 335.800 L 157.729 334.400 162.625 334.400 L 167.522 334.400 168.661 335.811 C 169.969 337.431,173.708 338.305,174.433 337.160 C 175.232 335.899,174.856 334.511,173.651 334.270 C 172.152 333.970,171.738 332.884,172.740 331.882 C 173.650 330.972,175.200 332.054,175.200 333.600 C 175.200 334.361,175.467 334.400,180.738 334.400 C 185.690 334.400,186.350 334.481,186.971 335.167 C 188.303 336.640,186.646 337.600,182.774 337.600 C 178.320 337.600,177.118 338.318,178.782 339.982 C 179.477 340.677,179.937 340.737,182.922 340.527 C 186.242 340.292,186.288 340.302,187.040 341.383 C 188.791 343.901,188.991 344.000,192.329 344.000 C 197.363 344.000,199.200 343.181,199.200 340.936 C 199.200 338.726,199.680 337.786,201.212 336.994 C 202.276 336.443,202.400 336.182,202.400 334.479 C 202.400 332.486,203.233 330.800,204.218 330.800 C 204.532 330.800,205.244 330.080,205.800 329.200 C 206.356 328.320,207.080 327.600,207.411 327.600 C 207.741 327.600,208.351 327.042,208.766 326.360 C 209.181 325.678,210.078 324.781,210.760 324.366 C 211.847 323.705,212.000 323.393,212.000 321.839 C 212.000 319.494,212.274 318.886,213.648 318.175 L 214.800 317.579 214.800 298.528 L 214.800 279.477 216.410 277.991 L 218.020 276.504 217.910 269.952 L 217.800 263.400 200.200 263.310 C 188.738 263.251,182.356 263.363,181.900 263.630 M285.300 263.655 C 285.025 263.933,284.800 264.400,284.800 264.693 C 284.800 264.987,284.198 265.582,283.463 266.016 C 282.728 266.450,281.929 267.239,281.687 267.769 C 281.445 268.300,280.755 268.974,280.153 269.267 C 278.615 270.016,278.584 270.526,279.979 272.115 C 280.918 273.184,281.200 273.887,281.200 275.153 C 281.200 276.300,281.443 277.012,282.000 277.500 C 282.440 277.885,283.160 278.515,283.600 278.900 C 284.278 279.493,284.400 280.100,284.400 282.876 L 284.400 286.153 287.400 289.038 C 290.264 291.792,290.400 292.005,290.400 293.728 C 290.400 295.356,290.557 295.657,292.000 296.800 L 293.600 298.067 293.600 306.185 C 293.600 312.912,293.497 314.387,293.000 314.800 C 291.581 315.978,292.398 316.126,298.905 315.869 C 304.944 315.631,305.502 315.669,306.714 316.406 C 307.432 316.843,308.645 317.200,309.410 317.200 L 310.800 317.200 310.800 311.000 L 310.800 304.800 309.435 304.800 C 308.155 304.800,308.054 304.701,307.800 303.200 C 307.547 301.701,307.444 301.600,306.172 301.600 L 304.815 301.600 304.707 292.300 L 304.600 283.000 303.100 282.876 L 301.600 282.752 301.600 278.176 L 301.600 273.600 300.000 273.600 L 298.400 273.600 298.400 272.000 L 298.400 270.400 296.800 270.400 L 295.200 270.400 295.200 268.800 L 295.200 267.200 293.600 267.200 C 292.009 267.200,292.000 267.192,292.000 265.650 L 292.000 264.099 289.900 263.870 C 288.745 263.744,287.350 263.530,286.800 263.395 C 286.214 263.252,285.593 263.359,285.300 263.655 M211.750 266.345 C 212.777 267.480,212.542 277.106,211.472 277.757 C 210.859 278.130,210.541 277.961,209.472 276.700 C 207.627 274.524,204.646 274.478,203.027 276.600 L 201.959 278.000 198.511 278.000 C 194.230 278.000,192.987 277.304,194.464 275.732 C 195.144 275.008,195.766 274.800,197.256 274.800 C 198.737 274.800,199.265 274.625,199.583 274.031 C 200.406 272.494,201.244 272.000,203.029 272.000 C 205.483 272.000,206.400 271.026,206.400 268.420 C 206.400 266.114,206.923 265.631,209.438 265.612 C 210.539 265.604,211.297 265.844,211.750 266.345 M275.000 275.302 C 274.120 275.507,272.725 275.845,271.900 276.053 L 270.400 276.431 270.400 279.615 L 270.400 282.800 272.000 282.800 L 273.600 282.800 273.600 284.400 C 273.600 285.959,273.636 286.000,274.987 286.000 L 276.374 286.000 276.487 290.500 L 276.600 295.000 278.084 295.123 L 279.567 295.246 279.684 298.323 L 279.800 301.400 281.300 301.524 C 282.756 301.645,282.800 301.695,282.800 303.207 L 282.800 304.766 279.700 304.883 L 276.600 305.000 276.600 307.800 L 276.600 310.600 278.100 310.724 C 279.558 310.845,279.600 310.892,279.600 312.424 C 279.600 313.967,279.630 314.000,281.042 314.000 C 281.997 314.000,282.886 314.338,283.673 315.000 C 284.769 315.923,292.000 316.621,292.000 315.805 C 292.000 315.360,289.980 313.134,288.460 311.904 C 287.281 310.950,287.245 307.911,288.400 306.900 C 288.840 306.515,289.560 305.885,290.000 305.500 C 291.501 304.187,291.112 301.514,289.200 300.000 C 287.767 298.865,287.600 298.549,287.600 296.970 C 287.600 295.296,287.441 295.053,284.400 292.072 L 281.200 288.936 281.200 285.777 L 281.200 282.618 279.600 281.155 C 278.191 279.867,278.000 279.479,278.000 277.908 C 278.000 275.504,277.181 274.793,275.000 275.302 M204.037 289.941 L 206.400 292.282 206.400 295.341 L 206.400 298.400 202.400 302.400 C 198.532 306.268,198.341 306.400,196.620 306.400 C 195.052 306.400,194.712 306.569,193.759 307.818 C 192.527 309.433,188.770 309.776,187.878 308.355 C 187.139 307.177,191.562 303.200,193.611 303.200 C 196.075 303.200,203.713 295.643,202.394 294.510 C 201.940 294.119,201.171 293.376,200.684 292.858 C 199.719 291.829,198.850 290.996,197.567 289.867 C 196.302 288.754,197.489 287.600,199.899 287.600 C 201.528 287.600,201.869 287.793,204.037 289.941 M174.800 298.014 C 174.800 299.180,176.452 300.000,178.800 300.000 C 180.996 300.000,181.200 299.926,181.200 299.131 C 181.200 296.867,185.044 295.844,186.833 297.633 C 188.231 299.031,186.965 300.000,183.738 300.000 C 181.400 300.000,181.200 300.068,181.200 300.869 C 181.200 303.130,174.784 304.395,172.731 302.538 C 171.062 301.027,172.246 296.261,174.050 297.227 C 174.463 297.448,174.800 297.802,174.800 298.014 M174.069 309.862 C 175.109 310.804,175.042 310.971,172.643 313.409 L 170.487 315.600 165.523 315.600 C 162.196 315.600,160.402 315.442,160.080 315.120 C 159.255 314.295,159.552 313.245,160.793 312.604 C 161.450 312.264,162.256 311.466,162.585 310.829 C 163.378 309.295,163.482 309.268,168.769 309.232 C 172.489 309.206,173.473 309.323,174.069 309.862 M199.371 322.629 C 200.389 323.646,200.260 329.641,199.200 330.600 C 197.941 331.740,196.800 330.498,196.800 327.987 C 196.800 325.960,196.377 325.358,194.800 325.139 C 193.990 325.026,193.774 325.190,193.662 326.000 C 193.402 327.875,193.023 328.000,187.613 328.000 C 181.683 328.000,180.225 327.375,182.006 325.594 C 182.829 324.771,183.169 324.731,188.239 324.862 C 193.308 324.992,193.600 324.958,193.600 324.231 C 193.600 322.201,197.782 321.040,199.371 322.629 M196.171 335.029 C 196.958 335.815,196.955 335.966,196.138 336.869 C 194.860 338.280,190.800 337.481,190.800 335.818 C 190.800 334.375,194.913 333.771,196.171 335.029 " stroke="none" fill="#fc0404" fill-rule="evenodd"></path><path id="path2" d="M92.200 184.400 C 91.946 185.901,91.845 186.000,90.565 186.000 C 89.239 186.000,89.200 186.046,89.200 187.600 L 89.200 189.200 86.000 189.200 L 82.800 189.200 82.800 190.565 C 82.800 191.845,82.701 191.946,81.200 192.200 L 79.600 192.470 79.600 204.835 L 79.600 217.200 81.183 217.200 L 82.766 217.200 82.883 220.300 L 83.000 223.400 87.553 223.514 C 91.671 223.616,92.157 223.553,92.647 222.855 C 93.344 221.859,95.176 221.227,96.200 221.630 C 98.022 222.345,99.036 222.047,100.034 220.500 C 100.900 219.158,101.202 218.987,102.901 218.878 C 105.327 218.722,105.402 217.950,103.200 215.800 C 100.976 213.628,101.003 212.400,103.276 212.400 C 104.839 212.400,105.148 212.197,107.838 209.400 C 110.522 206.610,110.840 206.400,112.388 206.400 C 115.523 206.400,116.211 205.409,114.849 202.855 C 114.159 201.559,114.159 201.456,114.866 200.070 C 115.901 198.041,115.841 195.387,114.740 194.496 C 112.416 192.615,112.400 192.577,112.400 188.960 C 112.400 186.624,112.193 185.085,111.754 184.160 L 111.109 182.800 101.790 182.800 L 92.470 182.800 92.200 184.400 M279.867 314.267 C 279.720 314.413,279.600 315.122,279.600 315.843 C 279.600 317.067,279.503 317.160,278.100 317.276 C 276.681 317.393,276.593 317.481,276.476 318.900 C 276.358 320.319,276.277 320.400,274.976 320.400 L 273.600 320.400 273.600 326.600 L 273.600 332.800 274.976 332.800 C 276.277 332.800,276.358 332.881,276.476 334.300 C 276.593 335.719,276.681 335.807,278.100 335.924 L 279.600 336.048 279.600 342.224 L 279.600 348.400 282.800 348.400 L 286.000 348.400 286.000 350.000 L 286.000 351.600 296.765 351.600 L 307.530 351.600 307.800 350.000 L 308.070 348.400 311.035 348.400 L 314.000 348.400 314.000 336.000 L 314.000 323.600 312.400 323.600 L 310.800 323.600 310.800 322.000 C 310.800 320.438,310.767 320.400,309.400 320.400 C 308.032 320.400,308.000 320.363,308.000 318.794 C 308.000 315.829,307.345 315.680,295.268 315.899 L 284.963 316.086 283.724 315.043 C 282.557 314.061,280.489 313.645,279.867 314.267 M156.959 335.300 C 154.559 338.068,153.978 337.800,162.372 337.800 L 169.887 337.800 169.268 336.800 C 167.769 334.375,167.839 334.400,162.608 334.400 C 158.057 334.400,157.689 334.459,156.959 335.300 M170.800 337.921 C 170.800 338.098,171.790 339.115,173.000 340.182 C 176.587 343.344,176.014 346.800,171.902 346.800 C 170.239 346.800,169.948 346.950,168.800 348.400 C 167.664 349.834,167.349 350.000,165.766 350.000 C 164.000 350.000,163.603 350.241,161.904 352.340 C 161.260 353.136,160.840 353.200,156.266 353.200 C 150.355 353.200,149.624 352.820,150.369 350.137 C 150.604 349.291,150.797 347.739,150.798 346.687 C 150.799 345.351,150.982 344.705,151.405 344.543 C 152.438 344.146,153.200 345.184,153.200 346.987 C 153.200 350.431,156.745 351.251,159.305 348.400 C 160.543 347.021,160.971 346.800,162.403 346.800 C 163.896 346.800,164.302 346.562,166.416 344.448 C 169.678 341.186,169.250 340.800,162.369 340.800 L 157.400 340.800 156.169 342.266 C 154.936 343.735,154.001 343.826,153.999 342.476 C 153.994 340.570,152.492 339.200,150.406 339.200 L 148.400 339.200 148.400 340.565 C 148.400 341.845,148.301 341.946,146.800 342.200 C 145.299 342.454,145.200 342.555,145.200 343.835 C 145.200 345.122,145.122 345.200,143.835 345.200 C 142.555 345.200,142.454 345.299,142.200 346.800 C 141.946 348.301,141.845 348.400,140.565 348.400 C 139.239 348.400,139.200 348.446,139.200 350.000 L 139.200 351.600 134.400 351.600 L 129.600 351.600 129.600 355.400 L 129.600 359.200 128.158 359.200 C 127.202 359.200,126.314 359.538,125.524 360.203 C 124.868 360.754,124.161 361.099,123.951 360.970 C 123.742 360.841,122.857 360.855,121.985 361.002 C 119.130 361.485,120.599 366.091,124.000 367.320 C 124.362 367.451,124.402 367.549,124.100 367.568 C 122.862 367.647,123.550 370.589,125.179 372.180 C 126.219 373.195,126.800 374.145,126.879 374.961 C 126.984 376.036,127.172 376.217,128.300 376.325 C 129.590 376.450,129.600 376.468,129.600 378.599 C 129.600 382.421,129.923 382.800,133.177 382.800 L 135.974 382.800 136.087 387.300 L 136.200 391.800 137.677 391.923 C 139.065 392.038,139.162 392.135,139.277 393.523 C 139.393 394.911,139.489 395.007,140.877 395.123 C 142.265 395.238,142.362 395.335,142.477 396.723 C 142.589 398.067,142.717 398.211,143.900 398.325 C 144.876 398.419,145.200 398.644,145.200 399.225 C 145.200 399.974,145.595 400.000,157.000 400.000 L 168.800 400.000 168.800 397.600 C 168.800 395.700,168.633 395.054,168.000 394.500 C 166.468 393.160,165.796 392.515,165.140 391.760 C 164.778 391.342,163.981 390.580,163.370 390.067 C 161.954 388.879,162.547 388.415,165.490 388.406 C 167.401 388.401,167.631 388.501,168.188 389.578 C 168.523 390.225,169.282 390.990,169.875 391.278 C 170.679 391.667,171.077 392.291,171.443 393.732 C 172.243 396.885,172.739 397.198,176.962 397.214 C 179.359 397.224,180.941 397.423,181.600 397.800 C 184.595 399.512,186.000 398.505,186.000 394.648 C 186.000 390.721,184.237 389.200,179.683 389.200 L 176.400 389.200 176.400 387.600 L 176.400 386.000 173.400 386.000 L 170.400 386.000 170.400 384.400 L 170.400 382.800 167.200 382.800 L 164.000 382.800 164.000 381.200 L 164.000 379.600 162.400 379.600 L 160.800 379.600 160.800 378.000 L 160.800 376.400 164.000 376.400 L 167.200 376.400 167.262 374.100 C 167.356 370.637,167.232 369.945,166.197 368.168 C 164.525 365.299,164.373 365.291,161.726 367.938 C 160.427 369.237,158.640 370.669,157.756 371.120 C 156.631 371.694,155.928 372.430,155.413 373.570 C 154.938 374.624,154.417 375.200,153.939 375.200 C 152.686 375.200,152.881 379.560,154.188 380.789 C 154.732 381.300,155.377 382.324,155.622 383.066 C 155.894 383.892,156.528 384.653,157.258 385.030 C 159.145 386.006,158.714 387.363,156.466 387.525 C 154.815 387.643,154.616 387.533,152.350 385.246 L 149.968 382.842 150.084 379.321 L 150.200 375.800 151.700 375.067 C 153.183 374.342,153.200 374.307,153.200 371.954 C 153.200 369.663,153.252 369.542,154.582 368.757 C 155.343 368.309,156.073 367.599,156.207 367.179 C 156.340 366.760,156.978 366.104,157.624 365.722 C 158.271 365.340,158.800 364.913,158.800 364.772 C 158.800 363.776,160.895 362.400,162.412 362.400 C 164.963 362.400,178.000 349.379,178.000 346.831 C 178.000 345.690,178.250 344.970,178.833 344.433 C 179.292 344.012,180.203 343.161,180.858 342.542 C 181.721 341.728,182.621 341.348,184.125 341.165 C 185.999 340.937,185.880 340.907,182.900 340.856 C 179.659 340.801,178.000 340.118,178.000 338.839 C 178.000 338.217,175.578 337.600,173.140 337.600 C 171.853 337.600,170.800 337.745,170.800 337.921 M228.259 341.511 C 227.132 342.192,227.122 342.230,227.433 344.800 C 227.757 347.471,227.785 350.351,227.540 355.600 C 227.371 359.214,227.659 360.378,229.143 362.093 C 231.867 365.240,231.897 372.778,229.192 374.330 C 227.723 375.174,227.200 376.345,227.200 378.795 C 227.200 381.090,226.573 381.701,225.535 380.419 C 224.961 379.711,224.800 378.823,224.800 376.375 L 224.800 373.238 226.400 371.952 C 227.855 370.782,228.000 370.497,228.000 368.795 C 228.000 366.254,226.844 365.047,225.728 366.424 C 225.327 366.918,223.949 368.375,222.665 369.661 L 220.330 372.000 210.965 372.000 C 200.815 372.000,200.000 371.822,200.000 369.600 C 200.000 368.825,200.267 368.800,208.619 368.800 L 217.238 368.800 218.219 367.742 C 218.759 367.159,219.200 366.568,219.200 366.428 C 219.200 366.287,219.740 365.854,220.400 365.464 C 223.468 363.651,221.381 362.400,215.289 362.400 L 210.441 362.400 209.373 361.000 L 208.305 359.600 203.333 359.600 C 198.337 359.600,196.400 358.925,196.400 357.184 C 196.400 356.598,195.049 356.380,194.544 356.885 C 194.255 357.175,193.997 358.493,193.955 359.900 C 193.882 362.337,193.853 362.400,192.789 362.400 C 191.097 362.400,190.819 361.672,190.542 356.528 L 190.284 351.738 191.355 350.569 C 191.943 349.926,192.734 348.773,193.113 348.006 C 193.491 347.239,194.218 346.406,194.728 346.155 C 197.589 344.748,197.060 344.000,193.203 344.000 C 190.644 344.000,189.191 343.809,188.321 343.359 L 187.082 342.718 187.316 344.160 C 187.530 345.477,187.413 345.713,185.975 346.868 C 184.571 347.996,184.400 348.326,184.400 349.897 C 184.400 351.754,184.339 351.825,175.482 360.292 C 174.427 361.300,174.722 363.755,175.918 363.928 C 176.625 364.030,176.800 364.320,176.800 365.385 C 176.800 366.981,177.238 367.200,180.433 367.200 C 182.619 367.200,182.800 367.269,182.806 368.100 C 182.818 369.794,183.405 370.163,186.354 370.329 L 189.156 370.488 189.278 371.744 C 189.388 372.877,189.545 373.012,190.877 373.123 C 192.265 373.238,192.362 373.335,192.477 374.723 C 192.588 376.058,192.722 376.212,193.866 376.323 C 194.960 376.429,195.178 376.646,195.478 377.923 C 195.780 379.206,195.994 379.416,197.113 379.525 C 198.092 379.621,198.400 379.842,198.400 380.452 C 198.400 381.913,199.161 382.800,200.414 382.800 C 201.462 382.800,201.600 382.938,201.600 383.986 C 201.600 385.239,202.487 386.000,203.948 386.000 C 204.560 386.000,204.779 386.308,204.875 387.300 C 204.985 388.449,205.163 388.623,206.400 388.800 C 207.644 388.978,207.822 389.156,208.000 390.400 C 208.178 391.644,208.356 391.822,209.600 392.000 C 210.844 392.178,211.022 392.356,211.200 393.600 L 211.400 395.000 222.100 395.107 L 232.800 395.213 232.800 396.327 C 232.800 398.020,233.474 398.400,236.480 398.400 C 238.933 398.400,239.200 398.478,239.200 399.200 C 239.200 399.991,239.467 400.000,262.600 400.000 L 286.000 400.000 286.000 398.440 L 286.000 396.880 281.131 396.826 L 276.261 396.773 273.931 394.361 C 272.649 393.034,271.600 391.691,271.600 391.375 C 271.600 390.897,270.401 390.800,264.467 390.800 L 257.334 390.800 256.011 392.447 L 254.687 394.093 251.444 393.819 C 246.325 393.386,245.101 390.400,250.042 390.400 C 251.210 390.400,252.028 390.111,252.873 389.400 C 254.057 388.403,254.089 388.400,262.398 388.400 C 271.352 388.400,272.000 388.484,272.000 389.643 C 272.000 390.300,272.311 390.400,274.366 390.400 C 276.649 390.400,276.777 390.456,278.000 392.000 L 279.267 393.600 282.634 393.600 L 286.000 393.600 286.000 388.200 L 286.000 382.800 284.400 382.800 L 282.800 382.800 282.800 381.200 L 282.800 379.600 278.200 379.600 L 273.600 379.600 273.600 381.200 L 273.600 382.800 262.624 382.800 L 251.648 382.800 251.524 381.300 L 251.400 379.800 248.323 379.684 L 245.246 379.567 245.123 378.084 L 245.000 376.600 242.109 376.483 L 239.217 376.365 239.109 368.683 L 239.000 361.000 237.500 360.876 C 235.131 360.680,235.212 358.203,237.600 357.800 L 239.200 357.530 239.200 354.565 L 239.200 351.600 240.600 351.600 L 242.000 351.600 242.000 348.400 L 242.000 345.200 240.600 345.200 C 239.271 345.200,239.200 345.130,239.200 343.825 C 239.200 342.495,239.139 342.440,237.341 342.170 C 236.319 342.017,235.014 341.647,234.441 341.348 C 232.983 340.587,229.642 340.675,228.259 341.511 M222.465 346.180 L 221.627 347.600 216.224 347.600 L 210.821 347.600 210.154 348.900 C 209.185 350.792,209.210 350.787,201.800 350.800 C 194.388 350.813,193.366 351.036,194.578 352.376 C 195.132 352.988,195.813 353.200,197.229 353.200 C 198.975 353.200,199.207 353.317,200.000 354.600 L 200.865 356.000 205.879 356.000 L 210.892 356.000 212.355 357.600 L 213.818 359.200 218.860 359.200 C 225.250 359.200,224.848 359.726,224.710 351.552 C 224.588 344.282,224.172 343.287,222.465 346.180 M129.994 360.651 C 130.873 360.838,130.908 360.908,130.294 361.251 C 129.880 361.483,129.600 362.116,129.600 362.820 C 129.600 363.897,129.481 364.000,128.228 364.000 C 127.123 364.000,126.822 364.175,126.682 364.900 C 126.587 365.395,126.484 364.780,126.454 363.533 C 126.422 362.195,126.207 361.202,125.929 361.110 C 123.889 360.430,127.202 360.056,129.994 360.651 M196.069 363.062 C 196.471 363.426,196.800 364.146,196.800 364.662 C 196.800 365.358,197.024 365.600,197.669 365.600 C 198.846 365.600,200.000 366.719,200.000 367.862 C 200.000 368.533,199.773 368.800,199.200 368.800 C 198.191 368.800,196.800 367.438,196.800 366.450 C 196.800 365.935,196.420 365.624,195.590 365.458 C 194.833 365.307,194.254 364.876,194.043 364.308 C 193.372 362.505,194.611 361.743,196.069 363.062 M169.200 372.371 C 169.200 372.575,168.885 372.824,168.500 372.924 C 167.973 373.062,168.023 373.119,168.700 373.154 C 169.254 373.182,169.600 372.969,169.600 372.600 C 169.600 372.270,169.510 372.000,169.400 372.000 C 169.290 372.000,169.200 372.167,169.200 372.371 M236.758 381.968 C 239.455 382.213,239.746 382.434,240.206 384.589 C 240.347 385.247,241.201 386.462,242.116 387.307 C 244.258 389.285,243.896 390.143,240.841 390.322 L 238.765 390.443 235.859 387.422 C 233.078 384.531,232.874 384.400,231.138 384.400 C 229.411 384.400,227.453 383.213,228.105 382.561 C 228.566 382.101,232.616 381.302,233.400 381.517 C 233.840 381.637,235.351 381.840,236.758 381.968 M155.633 394.433 C 156.426 395.226,156.432 395.301,155.771 396.033 C 154.828 397.074,151.598 397.103,150.670 396.077 C 148.863 394.080,153.683 392.483,155.633 394.433 " stroke="none" fill="#b9d06a" fill-rule="evenodd"></path><path id="path3" d="M176.667 67.467 C 176.520 67.613,176.400 68.333,176.400 69.067 L 176.400 70.400 170.200 70.400 L 164.000 70.400 164.000 72.000 L 164.000 73.600 161.000 73.600 L 158.000 73.600 158.000 74.983 L 158.000 76.366 154.900 76.483 L 151.800 76.600 151.677 78.077 C 151.562 79.465,151.465 79.562,150.077 79.677 C 148.685 79.793,148.593 79.886,148.476 81.300 L 148.352 82.800 145.411 82.800 L 142.470 82.800 142.200 84.400 C 141.946 85.901,141.845 86.000,140.565 86.000 C 139.239 86.000,139.200 86.046,139.200 87.600 L 139.200 89.200 137.600 89.200 C 136.046 89.200,136.000 89.239,136.000 90.565 C 136.000 91.845,135.901 91.946,134.400 92.200 C 132.905 92.453,132.800 92.559,132.800 93.811 C 132.800 95.072,132.710 95.159,131.300 95.276 L 129.800 95.400 129.684 98.477 L 129.567 101.554 128.084 101.677 C 126.684 101.793,126.593 101.885,126.476 103.300 C 126.358 104.719,126.277 104.800,124.976 104.800 L 123.600 104.800 123.600 107.776 L 123.600 110.752 122.100 110.876 L 120.600 111.000 120.483 114.100 L 120.366 117.200 118.783 117.200 L 117.200 117.200 117.200 120.400 L 117.200 123.600 115.600 123.600 L 114.000 123.600 114.000 129.776 L 114.000 135.952 112.500 136.076 L 111.000 136.200 110.897 159.427 L 110.794 182.655 111.797 183.597 C 112.583 184.335,112.801 184.936,112.803 186.370 C 112.812 190.793,113.231 192.396,114.558 193.076 C 116.824 194.236,117.317 198.719,115.392 200.645 L 114.384 201.653 115.192 202.680 C 115.636 203.246,116.000 203.954,116.000 204.254 C 116.000 204.584,116.439 204.800,117.111 204.800 C 119.284 204.800,120.000 205.748,120.000 208.623 C 120.000 211.027,120.060 211.200,120.900 211.206 C 122.584 211.218,122.990 211.831,123.200 214.685 C 123.393 217.306,123.439 217.404,124.521 217.529 C 125.867 217.683,126.400 218.823,126.400 221.543 C 126.400 223.328,126.472 223.456,127.691 223.817 C 128.641 224.099,129.072 224.523,129.328 225.428 C 129.581 226.325,130.014 226.756,130.937 227.028 C 132.502 227.489,133.090 231.306,131.747 232.288 C 131.085 232.772,131.089 232.831,131.822 233.367 C 132.400 233.789,132.648 234.578,132.798 236.467 L 133.000 239.000 134.500 239.124 C 135.919 239.242,136.000 239.323,136.000 240.624 C 136.000 241.963,136.043 242.000,137.600 242.000 L 139.200 242.000 139.200 243.600 C 139.200 245.154,139.239 245.200,140.565 245.200 C 141.845 245.200,141.946 245.299,142.200 246.800 L 142.470 248.400 145.435 248.400 L 148.400 248.400 148.400 250.000 L 148.400 251.600 150.000 251.600 C 151.156 251.600,151.600 251.767,151.600 252.200 C 151.600 253.564,153.108 254.400,155.568 254.400 C 157.885 254.400,157.942 254.427,158.205 255.624 C 158.525 257.078,159.626 257.600,162.376 257.600 C 164.196 257.600,164.313 257.665,164.541 258.807 C 164.863 260.413,166.006 260.800,170.426 260.800 L 174.000 260.800 174.000 262.578 C 174.000 264.110,173.852 264.429,172.928 264.878 C 172.339 265.165,171.560 265.940,171.198 266.600 C 170.600 267.689,170.326 267.811,168.244 267.921 C 166.103 268.033,165.894 268.134,165.135 269.421 L 164.321 270.800 161.187 270.800 C 157.311 270.800,156.086 271.234,155.540 272.800 C 155.273 273.567,154.756 274.096,154.117 274.257 C 153.480 274.417,152.909 274.999,152.552 275.854 C 151.861 277.507,151.286 277.566,150.753 276.038 C 150.506 275.330,149.872 274.678,149.130 274.371 C 148.412 274.074,147.754 273.413,147.527 272.762 C 147.091 271.511,145.515 270.800,143.179 270.800 C 141.875 270.800,141.624 270.645,141.265 269.614 C 140.998 268.848,140.483 268.336,139.811 268.167 C 139.140 267.999,138.575 267.437,138.218 266.581 C 137.571 265.033,136.125 264.469,131.900 264.117 C 128.847 263.863,129.050 264.212,129.188 259.475 C 129.263 256.918,129.223 256.780,128.534 257.225 C 126.969 258.235,125.875 260.078,125.689 262.017 C 125.507 263.911,125.468 263.961,124.051 264.112 C 123.253 264.196,124.355 264.296,126.500 264.333 L 130.400 264.400 130.400 266.124 C 130.400 267.984,130.806 268.689,132.470 269.717 C 133.058 270.081,133.656 270.745,133.798 271.194 C 133.940 271.642,134.592 272.285,135.246 272.624 C 135.899 272.962,136.603 273.683,136.810 274.226 C 137.251 275.386,138.637 276.000,140.816 276.000 C 142.154 276.000,142.470 276.176,143.009 277.217 C 143.725 278.601,144.978 279.200,147.159 279.200 C 149.036 279.200,149.155 279.322,148.832 280.913 L 148.570 282.200 145.185 282.425 L 141.800 282.651 145.100 282.725 L 148.400 282.800 148.400 284.400 L 148.400 286.000 146.782 286.000 C 145.720 286.000,145.187 286.172,145.230 286.500 C 145.266 286.775,145.273 288.105,145.247 289.455 L 145.200 291.911 143.844 292.165 C 142.292 292.457,142.014 293.081,142.005 296.300 L 142.000 298.400 140.600 298.400 L 139.200 298.400 139.200 306.200 L 139.200 314.000 137.900 314.047 C 137.185 314.073,136.465 314.073,136.300 314.047 C 136.135 314.021,136.000 315.440,136.000 317.200 L 136.000 320.400 134.400 320.400 L 132.800 320.400 132.800 326.600 L 132.800 332.800 137.365 332.800 L 141.930 332.800 142.200 334.400 L 142.470 336.000 145.412 336.000 C 148.798 336.000,148.819 335.981,149.065 332.673 C 149.361 328.694,149.468 328.454,151.362 327.533 C 153.077 326.700,153.098 326.665,152.720 325.297 C 152.176 323.325,152.584 322.206,154.197 321.255 L 155.600 320.427 155.600 315.490 C 155.600 310.244,155.798 309.572,157.607 308.673 C 158.538 308.211,158.613 307.938,158.800 304.321 C 159.010 300.263,159.050 300.147,160.493 299.430 C 161.370 298.993,161.407 298.753,161.600 292.149 C 161.807 285.070,161.993 284.310,163.641 283.787 C 164.063 283.653,164.680 283.019,165.011 282.378 C 165.342 281.738,166.115 280.954,166.729 280.637 C 167.342 280.320,168.049 279.611,168.298 279.063 C 168.548 278.515,169.258 277.825,169.876 277.530 C 170.795 277.092,171.019 276.702,171.107 275.397 C 171.306 272.411,171.531 272.001,173.413 271.195 L 175.200 270.428 175.200 267.259 C 175.200 261.163,175.332 261.131,199.800 261.283 L 218.600 261.400 218.954 262.600 L 219.308 263.800 223.754 263.663 C 228.404 263.521,229.072 263.304,229.276 261.871 C 229.395 261.035,229.625 260.992,235.000 260.797 C 241.196 260.573,241.425 260.506,241.801 258.795 C 242.122 257.335,242.525 257.278,243.131 258.608 C 244.302 261.179,249.838 260.988,250.759 258.345 C 251.128 257.287,251.313 257.200,253.197 257.200 C 257.058 257.200,258.669 253.643,255.376 252.391 C 254.061 251.891,254.146 251.351,255.585 251.063 C 256.507 250.879,256.846 250.534,257.109 249.513 C 257.440 248.227,257.501 248.196,260.064 248.000 C 262.649 247.802,264.000 247.182,264.000 246.194 C 264.000 245.594,264.885 245.200,266.233 245.200 C 267.095 245.200,267.200 245.026,267.200 243.600 L 267.200 242.000 268.800 242.000 C 270.362 242.000,270.400 241.967,270.400 240.600 C 270.400 239.275,270.473 239.200,271.757 239.200 C 273.191 239.200,273.600 238.704,273.600 236.967 C 273.600 236.128,273.786 236.000,275.000 236.000 L 276.400 236.000 276.400 232.800 L 276.400 229.600 278.000 229.600 L 279.600 229.600 279.600 228.000 L 279.600 226.400 281.200 226.400 L 282.800 226.400 282.800 223.424 L 282.800 220.448 284.300 220.324 L 285.800 220.200 285.916 217.123 L 286.033 214.046 287.516 213.923 L 289.000 213.800 289.117 210.941 L 289.233 208.083 290.617 207.823 L 292.000 207.564 292.000 201.382 L 292.000 195.200 293.600 195.200 L 295.200 195.200 295.200 165.600 L 295.200 136.000 293.600 136.000 L 292.000 136.000 292.000 129.800 L 292.000 123.600 290.617 123.600 L 289.234 123.600 289.117 120.500 L 289.000 117.400 287.516 117.277 L 286.033 117.154 285.916 114.077 L 285.800 111.000 284.300 110.876 L 282.800 110.752 282.800 107.776 L 282.800 104.800 281.200 104.800 L 279.600 104.800 279.600 103.200 L 279.600 101.600 278.000 101.600 L 276.400 101.600 276.400 98.400 L 276.400 95.200 275.025 95.200 C 273.767 95.200,273.640 95.090,273.525 93.900 C 273.416 92.767,273.207 92.552,271.900 92.229 C 270.542 91.894,270.400 91.733,270.400 90.529 C 270.400 89.245,270.346 89.200,268.800 89.200 L 267.200 89.200 267.200 87.600 L 267.200 86.000 265.600 86.000 L 264.000 86.000 264.000 84.400 L 264.000 82.800 261.035 82.800 L 258.070 82.800 257.800 81.200 C 257.546 79.699,257.445 79.600,256.165 79.600 C 254.880 79.600,254.800 79.521,254.800 78.243 C 254.800 76.599,254.387 76.400,250.967 76.400 L 248.400 76.400 248.400 75.000 L 248.400 73.600 245.200 73.600 L 242.000 73.600 242.000 72.000 L 242.000 70.400 235.800 70.400 L 229.600 70.400 229.600 68.800 L 229.600 67.200 203.267 67.200 C 188.783 67.200,176.813 67.320,176.667 67.467 M204.800 96.800 L 204.800 98.400 211.000 98.400 L 217.200 98.400 217.200 100.000 L 217.200 101.600 220.400 101.600 L 223.600 101.600 223.600 103.200 L 223.600 104.800 226.600 104.800 L 229.600 104.800 229.600 106.165 C 229.600 107.445,229.699 107.546,231.200 107.800 C 232.701 108.054,232.800 108.155,232.800 109.435 L 232.800 110.800 236.000 110.800 L 239.200 110.800 239.200 112.400 C 239.200 113.954,239.239 114.000,240.565 114.000 C 241.845 114.000,241.946 114.099,242.200 115.600 C 242.453 117.095,242.559 117.200,243.811 117.200 C 245.072 117.200,245.159 117.290,245.276 118.700 C 245.393 120.119,245.481 120.207,246.900 120.324 L 248.400 120.448 248.400 123.424 L 248.400 126.400 250.000 126.400 L 251.600 126.400 251.600 128.000 L 251.600 129.600 253.200 129.600 L 254.800 129.600 254.800 132.800 L 254.800 136.000 256.400 136.000 L 258.000 136.000 258.000 139.000 L 258.000 142.000 259.383 142.000 L 260.766 142.000 260.883 145.100 L 261.000 148.200 262.500 148.324 L 264.000 148.448 264.000 154.624 L 264.000 160.800 265.600 160.800 L 267.200 160.800 267.200 165.600 L 267.200 170.400 265.600 170.400 L 264.000 170.400 264.000 176.576 L 264.000 182.752 262.500 182.876 L 261.000 183.000 260.883 186.100 L 260.766 189.200 259.383 189.200 L 258.000 189.200 258.000 192.200 L 258.000 195.200 256.400 195.200 L 254.800 195.200 254.800 198.400 L 254.800 201.600 253.200 201.600 L 251.600 201.600 251.600 203.200 L 251.600 204.800 250.000 204.800 L 248.400 204.800 248.400 207.776 L 248.400 210.752 246.900 210.876 C 245.481 210.993,245.393 211.081,245.276 212.500 C 245.159 213.910,245.072 214.000,243.811 214.000 C 242.559 214.000,242.453 214.105,242.200 215.600 C 241.946 217.101,241.845 217.200,240.565 217.200 C 239.239 217.200,239.200 217.246,239.200 218.800 L 239.200 220.400 236.000 220.400 L 232.800 220.400 232.800 222.000 L 232.800 223.600 231.200 223.600 C 229.642 223.600,229.600 223.636,229.600 224.982 L 229.600 226.365 226.700 226.482 L 223.800 226.600 223.676 228.100 L 223.552 229.600 220.376 229.600 L 217.200 229.600 217.200 231.200 L 217.200 232.800 211.000 232.800 L 204.800 232.800 204.800 234.400 L 204.800 236.000 203.200 236.000 L 201.600 236.000 201.600 234.400 L 201.600 232.800 195.424 232.800 L 189.248 232.800 189.124 231.300 L 189.000 229.800 185.923 229.684 L 182.846 229.567 182.723 228.084 L 182.600 226.600 179.500 226.483 L 176.400 226.366 176.400 224.983 C 176.400 223.674,176.327 223.600,175.024 223.600 C 173.723 223.600,173.642 223.519,173.524 222.100 L 173.400 220.600 170.300 220.483 L 167.200 220.366 167.200 218.783 C 167.200 217.203,167.197 217.200,165.600 217.200 L 164.000 217.200 164.000 215.600 L 164.000 214.000 162.400 214.000 L 160.800 214.000 160.800 212.400 C 160.800 210.838,160.767 210.800,159.400 210.800 C 158.013 210.800,158.000 210.783,158.000 209.050 C 158.000 205.581,157.660 204.800,156.150 204.800 C 154.842 204.800,154.800 204.751,154.800 203.200 C 154.800 201.603,154.797 201.600,153.217 201.600 L 151.634 201.600 151.517 198.500 L 151.400 195.400 149.900 195.276 L 148.400 195.152 148.400 192.176 L 148.400 189.200 146.800 189.200 L 145.200 189.200 145.200 186.000 L 145.200 182.800 143.600 182.800 L 142.000 182.800 142.000 176.600 L 142.000 170.400 140.600 170.400 L 139.200 170.400 139.200 165.600 L 139.200 160.800 140.600 160.800 L 142.000 160.800 142.000 154.600 L 142.000 148.400 143.600 148.400 L 145.200 148.400 145.200 145.200 L 145.200 142.000 146.800 142.000 L 148.400 142.000 148.400 139.000 L 148.400 136.000 150.000 136.000 L 151.600 136.000 151.600 132.800 L 151.600 129.600 153.200 129.600 L 154.800 129.600 154.800 128.000 C 154.800 126.449,154.841 126.400,156.153 126.400 C 157.723 126.400,157.986 125.843,157.995 122.500 L 158.000 120.400 159.400 120.400 C 160.767 120.400,160.800 120.362,160.800 118.800 L 160.800 117.200 162.400 117.200 L 164.000 117.200 164.000 115.600 L 164.000 114.000 165.600 114.000 C 167.197 114.000,167.200 113.997,167.200 112.417 L 167.200 110.834 170.300 110.717 L 173.400 110.600 173.522 109.340 C 173.628 108.256,173.836 108.045,175.022 107.822 C 176.273 107.588,176.400 107.438,176.400 106.199 L 176.400 104.834 179.500 104.717 L 182.600 104.600 182.723 103.116 L 182.846 101.633 185.923 101.516 L 189.000 101.400 189.124 99.900 L 189.248 98.400 195.424 98.400 L 201.600 98.400 201.600 96.800 L 201.600 95.200 203.200 95.200 L 204.800 95.200 204.800 96.800 M154.800 153.200 L 154.800 167.200 168.800 167.200 L 182.800 167.200 182.800 153.200 L 182.800 139.200 168.800 139.200 L 154.800 139.200 154.800 153.200 M229.600 168.800 L 229.600 182.800 243.550 182.800 L 257.500 182.800 257.750 181.550 C 257.887 180.863,258.000 175.125,258.000 168.800 C 258.000 162.475,257.887 156.737,257.750 156.050 L 257.500 154.800 243.550 154.800 L 229.600 154.800 229.600 168.800 M164.272 176.662 C 164.122 176.811,164.000 184.553,164.000 193.867 L 164.000 210.800 167.200 210.800 L 170.400 210.800 170.400 212.400 L 170.400 214.000 173.376 214.000 L 176.352 214.000 176.476 215.500 L 176.600 217.000 198.500 217.103 L 220.400 217.207 220.400 215.603 L 220.400 214.000 223.400 214.000 L 226.400 214.000 226.400 200.000 L 226.400 186.000 210.800 186.000 L 195.200 186.000 195.200 184.400 C 195.200 182.803,195.197 182.800,193.617 182.800 L 192.034 182.800 191.917 179.700 L 191.800 176.600 178.172 176.495 C 170.676 176.437,164.421 176.512,164.272 176.662 M282.006 248.700 C 282.024 249.577,282.788 250.159,282.794 249.300 C 282.797 248.805,282.620 248.400,282.400 248.400 C 282.180 248.400,282.003 248.535,282.006 248.700 M135.701 259.400 C 135.705 260.280,135.787 260.593,135.883 260.095 C 135.979 259.598,135.975 258.878,135.875 258.495 C 135.775 258.113,135.696 258.520,135.701 259.400 M259.552 259.158 C 258.825 259.747,258.570 260.438,258.408 262.258 L 258.200 264.600 256.012 264.724 C 253.648 264.858,252.911 265.255,252.366 266.691 C 252.172 267.199,251.599 267.772,251.091 267.966 C 249.194 268.687,249.182 268.778,249.294 281.445 L 249.400 293.393 250.900 294.364 L 252.400 295.334 252.400 299.081 L 252.400 302.827 253.800 303.653 L 255.200 304.479 255.266 309.540 C 255.303 312.323,255.297 319.820,255.254 326.200 C 255.210 332.580,255.180 338.015,255.187 338.278 C 255.195 338.563,254.433 338.817,253.300 338.906 C 252.255 338.988,254.370 339.055,258.000 339.054 C 261.630 339.053,263.647 338.986,262.483 338.905 L 260.367 338.757 260.483 326.764 C 260.582 316.626,260.693 314.711,261.200 314.391 C 261.598 314.140,261.632 314.010,261.300 314.006 C 260.918 314.001,260.800 312.255,260.800 306.623 L 260.800 299.246 259.100 299.123 L 257.400 299.000 257.200 295.118 C 256.997 291.172,256.801 290.673,255.134 289.842 C 254.201 289.377,254.200 289.366,254.200 281.214 L 254.200 273.051 255.491 272.716 C 256.492 272.457,256.857 272.092,257.116 271.091 C 257.436 269.856,257.536 269.800,259.425 269.800 L 261.400 269.800 261.523 271.500 L 261.646 273.200 259.723 273.223 L 257.800 273.245 259.200 273.737 C 259.970 274.007,260.690 274.114,260.800 273.974 C 260.985 273.739,264.468 273.210,266.800 273.063 C 267.711 273.006,267.800 273.143,267.800 274.600 C 267.800 276.538,269.408 277.085,270.942 275.669 C 271.414 275.233,272.450 274.609,273.245 274.282 C 274.604 273.722,275.654 272.995,277.119 271.600 C 277.683 271.063,277.511 270.987,275.474 270.880 C 273.417 270.772,273.142 270.648,272.593 269.586 C 271.962 268.366,271.296 268.086,268.600 267.907 C 265.953 267.730,266.481 266.646,269.338 266.392 C 275.275 265.864,273.703 261.709,267.493 261.515 C 264.036 261.407,263.793 261.342,263.327 260.407 C 262.324 258.389,261.030 257.961,259.552 259.158 M222.125 268.314 C 219.913 269.721,220.364 281.275,222.654 281.849 C 223.192 281.984,223.915 282.654,224.270 283.347 C 225.172 285.109,225.384 285.187,229.291 285.194 C 232.664 285.200,232.804 285.237,233.463 286.300 C 234.705 288.306,235.024 288.400,240.587 288.400 C 248.050 288.400,247.600 288.952,247.600 279.806 C 247.600 272.171,247.395 271.200,245.782 271.200 C 245.473 271.200,244.921 270.615,244.554 269.900 C 244.188 269.185,243.688 268.468,243.444 268.306 C 242.857 267.917,222.737 267.925,222.125 268.314 M242.600 278.200 L 242.600 283.400 240.714 283.521 C 238.894 283.638,238.808 283.594,238.241 282.236 C 237.559 280.605,237.084 280.442,232.604 280.301 C 229.553 280.205,229.384 280.150,228.882 279.099 C 228.592 278.493,227.825 277.723,227.178 277.388 C 226.151 276.857,226.000 276.559,226.000 275.056 C 226.000 272.681,225.640 272.772,234.575 272.892 L 242.600 273.000 242.600 278.200 M123.200 273.423 C 124.686 273.747,126.726 273.803,126.548 273.516 C 126.441 273.342,125.508 273.221,124.476 273.246 C 123.444 273.272,122.870 273.352,123.200 273.423 M132.806 278.500 C 132.810 279.384,132.923 279.626,133.157 279.256 C 133.472 278.759,133.317 277.200,132.953 277.200 C 132.869 277.200,132.803 277.785,132.806 278.500 M216.439 321.283 C 215.123 321.992,214.636 322.891,214.932 324.070 C 215.658 326.963,222.800 326.412,222.800 323.462 C 222.800 321.454,218.720 320.056,216.439 321.283 M224.982 328.182 C 224.442 328.722,224.000 329.342,224.000 329.560 C 224.000 329.778,223.507 330.193,222.904 330.482 C 222.301 330.771,221.565 331.512,221.270 332.129 C 220.974 332.746,220.432 333.357,220.066 333.486 C 217.934 334.239,217.274 336.646,218.889 337.777 C 221.144 339.357,224.756 338.389,226.222 335.811 C 226.605 335.138,226.724 335.206,227.514 336.544 C 229.324 339.612,231.680 338.799,232.000 334.997 C 232.171 332.965,232.345 332.547,233.193 332.126 C 235.250 331.105,235.761 329.361,234.400 328.000 C 233.088 326.688,226.346 326.818,224.982 328.182 M246.875 328.016 C 246.394 328.464,246.000 329.104,246.000 329.436 C 246.000 329.769,245.477 330.224,244.838 330.447 C 244.130 330.694,243.478 331.328,243.171 332.070 C 242.879 332.776,242.213 333.446,241.588 333.664 C 238.079 334.887,239.782 338.400,243.885 338.400 C 246.751 338.400,247.535 337.678,247.680 334.901 C 247.778 333.036,247.956 332.542,248.657 332.194 C 250.950 331.056,251.461 329.461,250.000 328.000 C 248.980 326.980,247.982 326.985,246.875 328.016 M265.770 333.158 C 266.194 333.324,266.676 333.806,266.842 334.230 C 267.094 334.874,267.148 334.819,267.172 333.900 C 267.196 332.953,267.047 332.804,266.100 332.828 C 265.181 332.852,265.126 332.906,265.770 333.158 M207.013 339.964 C 206.580 340.133,205.936 340.796,205.582 341.436 C 205.001 342.489,204.713 342.612,202.583 342.723 C 199.791 342.868,199.200 343.264,199.200 344.987 C 199.200 348.076,206.502 348.984,209.174 346.227 C 209.906 345.472,211.024 344.639,211.658 344.376 C 215.932 342.606,211.362 338.264,207.013 339.964 " stroke="none" fill="#044c4c" fill-rule="evenodd"></path><path id="path4" d="M112.867 190.934 C 112.811 192.227,113.020 192.663,114.200 193.708 C 115.814 195.137,116.215 198.543,114.977 200.311 C 114.635 200.800,114.535 201.200,114.755 201.200 C 117.213 201.200,117.019 194.336,114.524 193.058 C 113.496 192.532,113.218 192.113,113.092 190.902 L 112.934 189.400 112.867 190.934 M115.600 205.373 C 115.600 205.688,116.140 206.330,116.800 206.800 C 117.791 207.505,118.000 207.933,118.000 209.254 C 118.000 211.275,118.512 212.231,120.012 213.006 C 121.078 213.558,121.200 213.817,121.200 215.534 C 121.200 217.635,121.699 218.577,123.207 219.327 C 124.051 219.746,124.232 220.173,124.410 222.173 C 124.567 223.929,124.814 224.636,125.386 224.963 C 126.083 225.360,126.852 226.099,128.490 227.945 C 128.809 228.305,129.414 228.799,129.833 229.042 C 130.526 229.444,130.552 229.647,130.114 231.242 C 129.584 233.173,130.046 234.269,131.913 235.509 C 133.136 236.321,133.179 234.779,131.968 233.568 C 131.207 232.807,131.192 232.694,131.792 232.256 C 133.093 231.304,132.467 227.479,130.937 227.028 C 130.014 226.756,129.581 226.325,129.328 225.428 C 129.072 224.523,128.641 224.099,127.691 223.817 C 126.472 223.456,126.400 223.328,126.400 221.543 C 126.400 218.823,125.867 217.683,124.521 217.529 C 123.439 217.404,123.393 217.306,123.200 214.685 C 122.990 211.831,122.584 211.218,120.900 211.206 C 120.060 211.200,120.000 211.027,120.000 208.623 C 120.000 206.413,119.873 205.957,119.111 205.423 C 117.966 204.621,115.600 204.587,115.600 205.373 M97.462 222.731 C 96.515 223.778,96.484 232.908,97.425 233.684 C 99.396 235.310,106.302 242.310,106.519 242.900 C 106.686 243.356,107.197 243.600,107.987 243.600 C 108.916 243.600,109.200 243.780,109.200 244.367 C 109.200 245.663,109.666 246.445,110.664 246.824 C 111.190 247.024,111.993 247.820,112.449 248.594 C 113.095 249.688,113.536 250.000,114.440 250.000 C 115.402 250.000,115.600 250.166,115.600 250.971 C 115.600 252.214,116.586 253.200,117.829 253.200 C 118.634 253.200,118.800 253.398,118.800 254.360 C 118.800 255.264,119.112 255.705,120.206 256.351 C 120.980 256.807,121.785 257.635,121.996 258.190 C 122.207 258.746,122.648 259.200,122.976 259.200 C 123.824 259.200,124.400 260.483,124.400 262.374 C 124.400 264.820,125.446 264.548,125.687 262.039 C 125.895 259.874,127.025 258.147,129.000 256.980 C 129.660 256.590,131.589 254.860,133.286 253.135 C 134.983 251.411,136.603 249.994,136.886 249.987 C 137.169 249.980,137.760 249.697,138.200 249.358 C 138.949 248.781,138.898 248.760,137.400 249.016 C 135.417 249.355,134.140 250.128,133.802 251.194 C 133.660 251.642,133.026 252.276,132.394 252.603 C 131.762 252.930,131.010 253.682,130.722 254.275 C 130.334 255.076,129.709 255.477,128.288 255.838 L 126.376 256.323 125.121 254.762 C 123.900 253.243,123.797 253.200,121.333 253.200 C 118.942 253.200,118.800 253.147,118.800 252.262 C 118.800 251.119,117.646 250.000,116.469 250.000 C 115.667 250.000,115.600 249.801,115.600 247.423 C 115.600 244.211,114.946 243.600,111.511 243.600 L 109.200 243.600 109.197 240.900 C 109.195 238.321,109.141 238.170,107.997 237.519 C 107.339 237.144,106.600 236.399,106.356 235.863 C 106.112 235.327,105.473 234.688,104.937 234.444 C 104.401 234.200,103.677 233.505,103.327 232.900 C 102.977 232.295,102.130 231.437,101.445 230.994 C 100.229 230.206,100.195 230.102,100.000 226.478 C 99.855 223.781,99.636 222.665,99.200 222.390 C 98.370 221.867,98.217 221.898,97.462 222.731 M178.228 262.007 C 175.543 262.961,175.200 263.560,175.200 267.291 L 175.200 270.428 173.413 271.195 C 171.531 272.001,171.306 272.411,171.107 275.397 C 171.020 276.694,170.793 277.093,169.899 277.520 C 169.293 277.809,168.541 278.540,168.229 279.145 C 167.916 279.749,167.205 280.451,166.649 280.705 C 166.093 280.958,165.362 281.700,165.024 282.354 C 164.685 283.008,164.063 283.653,163.641 283.787 C 161.993 284.310,161.807 285.070,161.600 292.149 C 161.407 298.753,161.370 298.993,160.493 299.430 C 159.050 300.147,159.010 300.263,158.800 304.321 C 158.613 307.938,158.538 308.211,157.607 308.673 C 155.798 309.572,155.600 310.244,155.600 315.490 L 155.600 320.427 154.197 321.255 C 152.581 322.208,152.176 323.325,152.725 325.312 C 153.105 326.690,153.081 326.732,151.532 327.431 C 149.598 328.303,149.200 328.994,149.200 331.476 C 149.200 332.537,149.021 334.029,148.803 334.791 L 148.405 336.177 149.460 335.121 C 150.295 334.287,150.566 333.542,150.758 331.561 C 151.050 328.542,151.216 328.457,157.558 328.060 C 164.340 327.636,164.350 324.800,157.570 324.800 C 154.924 324.800,154.366 324.683,154.033 324.061 C 153.615 323.280,154.137 322.400,155.018 322.400 C 156.419 322.400,156.800 321.006,156.800 315.878 L 156.800 310.818 157.900 310.137 C 159.805 308.957,160.000 308.456,160.000 304.734 C 160.000 301.252,160.010 301.215,161.175 300.613 C 162.942 299.699,162.985 299.520,163.200 292.204 L 163.400 285.409 164.524 284.871 C 165.142 284.576,165.845 283.900,166.087 283.369 C 166.329 282.839,167.128 282.050,167.863 281.616 C 168.598 281.182,169.200 280.555,169.200 280.223 C 169.200 279.890,169.695 279.312,170.300 278.937 C 172.018 277.873,172.400 277.189,172.400 275.173 C 172.400 272.492,173.142 272.023,174.917 273.581 C 176.668 275.118,176.871 275.107,178.173 273.400 C 179.104 272.179,179.463 272.000,180.976 272.000 C 182.128 272.000,183.029 271.732,183.656 271.202 L 184.600 270.404 182.894 268.902 C 181.390 267.578,181.188 267.200,181.194 265.714 C 181.203 263.124,180.760 263.180,200.282 263.296 L 217.800 263.400 217.910 269.952 L 218.020 276.504 216.410 277.991 L 214.800 279.477 214.800 298.528 L 214.800 317.579 213.648 318.175 C 212.274 318.886,212.000 319.494,212.000 321.839 C 212.000 323.393,211.847 323.705,210.760 324.366 C 210.078 324.781,209.181 325.678,208.766 326.360 C 208.351 327.042,207.741 327.600,207.411 327.600 C 207.080 327.600,206.356 328.320,205.800 329.200 C 205.244 330.080,204.532 330.800,204.218 330.800 C 203.233 330.800,202.400 332.486,202.400 334.479 C 202.400 336.182,202.276 336.443,201.212 336.994 C 199.677 337.788,199.200 338.727,199.200 340.958 C 199.200 342.726,199.162 342.779,197.586 343.252 C 195.865 343.767,196.126 344.409,197.926 344.087 C 199.718 343.767,200.400 342.874,200.400 340.847 C 200.400 339.223,200.580 338.853,202.000 337.555 C 203.381 336.293,203.600 335.862,203.600 334.412 C 203.600 332.799,203.782 332.554,208.200 328.208 C 212.726 323.757,212.800 323.655,212.800 321.870 C 212.800 320.275,212.958 319.944,214.100 319.147 C 214.815 318.647,215.532 318.050,215.694 317.819 C 215.856 317.589,215.991 308.820,215.994 298.333 L 216.000 279.265 217.360 278.425 C 218.108 277.962,218.828 277.303,218.960 276.959 C 219.377 275.873,219.225 262.794,218.786 261.974 C 218.179 260.839,181.431 260.870,178.228 262.007 M281.908 265.980 C 279.767 268.151,277.804 270.394,277.544 270.964 C 277.284 271.534,276.954 272.000,276.811 272.000 C 276.668 272.000,276.158 272.366,275.678 272.813 C 275.198 273.260,274.037 273.956,273.097 274.358 C 271.745 274.938,269.774 276.448,270.451 276.386 C 270.533 276.379,271.989 276.043,273.687 275.641 C 277.375 274.766,278.000 275.105,278.000 277.978 C 278.000 279.468,278.210 279.884,279.600 281.155 L 281.200 282.618 281.200 285.777 L 281.200 288.936 284.400 292.072 C 287.441 295.053,287.600 295.296,287.600 296.970 C 287.600 298.549,287.767 298.865,289.200 300.000 C 291.112 301.514,291.501 304.187,290.000 305.500 C 289.560 305.885,288.840 306.515,288.400 306.900 C 287.245 307.911,287.281 310.950,288.460 311.904 C 289.558 312.792,290.412 313.648,291.328 314.777 C 293.127 316.994,293.600 315.202,293.600 306.172 L 293.600 298.067 292.000 296.800 C 290.557 295.657,290.400 295.356,290.400 293.728 C 290.400 292.005,290.264 291.792,287.400 289.038 L 284.400 286.153 284.400 282.876 C 284.400 280.100,284.278 279.493,283.600 278.900 C 283.160 278.515,282.440 277.885,282.000 277.500 C 281.443 277.012,281.200 276.300,281.200 275.153 C 281.200 273.887,280.918 273.184,279.979 272.115 C 278.584 270.526,278.615 270.016,280.153 269.267 C 280.755 268.974,281.445 268.300,281.687 267.769 C 281.929 267.239,282.728 266.450,283.463 266.016 C 284.198 265.582,284.800 264.973,284.800 264.662 C 284.800 263.544,285.927 263.043,287.416 263.500 C 289.147 264.032,289.172 263.815,287.500 262.796 C 285.821 261.772,286.358 261.466,281.908 265.980 M207.100 266.032 C 206.583 266.333,206.400 266.956,206.400 268.420 C 206.400 271.026,205.483 272.000,203.029 272.000 C 201.244 272.000,200.406 272.494,199.583 274.031 C 199.265 274.625,198.737 274.800,197.256 274.800 C 195.766 274.800,195.144 275.008,194.464 275.732 C 192.987 277.304,194.230 278.000,198.511 278.000 L 201.959 278.000 203.027 276.600 C 204.646 274.478,207.627 274.524,209.472 276.700 C 210.541 277.961,210.859 278.130,211.472 277.757 C 212.542 277.106,212.777 267.480,211.750 266.345 C 211.001 265.517,208.297 265.335,207.100 266.032 M197.429 288.367 C 196.768 289.099,196.774 289.170,197.567 289.867 C 198.850 290.996,199.719 291.829,200.684 292.858 C 201.171 293.376,201.940 294.119,202.394 294.510 C 203.713 295.643,196.075 303.200,193.611 303.200 C 191.562 303.200,187.139 307.177,187.878 308.355 C 188.770 309.776,192.527 309.433,193.759 307.818 C 194.712 306.569,195.052 306.400,196.620 306.400 C 198.341 306.400,198.532 306.268,202.400 302.400 L 206.400 298.400 206.400 295.341 L 206.400 292.282 204.037 289.941 C 201.366 287.294,198.926 286.714,197.429 288.367 M172.650 297.544 C 171.730 298.561,171.781 301.677,172.731 302.538 C 174.784 304.395,181.200 303.130,181.200 300.869 C 181.200 300.068,181.400 300.000,183.738 300.000 C 186.965 300.000,188.231 299.031,186.833 297.633 C 185.044 295.844,181.200 296.867,181.200 299.131 C 181.200 299.926,180.996 300.000,178.800 300.000 C 176.452 300.000,174.800 299.180,174.800 298.014 C 174.800 297.134,173.316 296.809,172.650 297.544 M163.692 309.468 C 163.412 309.580,162.914 310.193,162.585 310.829 C 162.256 311.466,161.450 312.264,160.793 312.604 C 159.552 313.245,159.255 314.295,160.080 315.120 C 160.402 315.442,162.196 315.600,165.523 315.600 L 170.487 315.600 172.643 313.409 C 175.042 310.971,175.109 310.804,174.069 309.862 C 173.351 309.213,165.104 308.899,163.692 309.468 M194.262 322.731 C 193.898 323.134,193.600 323.809,193.600 324.231 C 193.600 324.958,193.308 324.992,188.239 324.862 C 183.169 324.731,182.829 324.771,182.006 325.594 C 180.225 327.375,181.683 328.000,187.613 328.000 C 193.023 328.000,193.402 327.875,193.662 326.000 C 193.774 325.190,193.990 325.026,194.800 325.139 C 196.377 325.358,196.800 325.960,196.800 327.987 C 196.800 330.498,197.941 331.740,199.200 330.600 C 200.260 329.641,200.389 323.646,199.371 322.629 C 198.460 321.717,195.119 321.784,194.262 322.731 M172.641 331.955 C 171.750 332.939,172.225 333.985,173.695 334.279 C 174.821 334.504,174.878 334.606,174.683 336.059 C 174.487 337.518,174.534 337.600,175.558 337.600 C 176.153 337.600,176.851 337.811,177.109 338.069 C 177.468 338.428,177.820 338.428,178.608 338.069 C 179.174 337.811,181.069 337.600,182.819 337.600 C 186.644 337.600,188.296 336.632,186.971 335.167 C 186.350 334.482,185.690 334.400,180.788 334.400 L 175.300 334.400 175.064 333.222 C 174.744 331.619,173.522 330.981,172.641 331.955 M191.280 334.880 C 190.077 336.083,191.521 337.600,193.870 337.600 C 195.309 337.600,196.800 336.733,196.800 335.897 C 196.800 334.592,192.382 333.778,191.280 334.880 M153.700 337.589 C 152.765 338.014,152.000 338.450,152.000 338.560 C 152.000 338.901,154.570 337.923,155.186 337.347 C 155.954 336.629,155.737 336.665,153.700 337.589 M169.760 337.531 C 170.213 337.985,170.517 338.043,170.825 337.735 C 171.133 337.427,170.952 337.246,170.191 337.100 C 169.218 336.914,169.180 336.952,169.760 337.531 M183.600 340.682 C 185.495 340.797,185.952 340.992,186.900 342.093 C 188.174 343.572,188.406 343.024,187.171 341.454 C 186.421 340.500,186.108 340.407,183.871 340.474 L 181.400 340.548 183.600 340.682 M173.200 399.000 L 173.200 400.000 177.800 400.000 C 182.026 400.000,182.400 399.939,182.400 399.252 C 182.400 398.341,180.788 398.011,176.300 398.004 C 173.259 398.000,173.200 398.019,173.200 399.000 " stroke="none" fill="#6d0404" fill-rule="evenodd"></path></g></svg>